<?xml version="1.0" encoding="UTF-8"?>
<!-- Generator: visioncortex VTracer 0.6.3 -->
<svg version="1.1" xmlns="http://www.w3.org/2000/svg" width="1280" height="1011">
<path d="M0 0 C422.4 0 844.8 0 1280 0 C1280 333.63 1280 667.26 1280 1011 C857.6 1011 435.2 1011 0 1011 C0 677.37 0 343.74 0 0 Z " fill="#FCFCFC" transform="translate(0,0)"/>
<path d="M0 0 C49.28 -0.02 98.55 -0.03 147.83 -0.04 C148.55 -0.04 149.28 -0.04 150.03 -0.04 C165.87 -0.05 181.7 -0.05 197.54 -0.05 C205.3 -0.05 213.07 -0.05 220.83 -0.05 C221.6 -0.06 222.38 -0.06 223.17 -0.06 C248.24 -0.06 273.31 -0.07 298.38 -0.08 C324.13 -0.09 349.88 -0.09 375.63 -0.09 C379.26 -0.09 382.89 -0.09 386.53 -0.09 C387.24 -0.09 387.96 -0.1 388.69 -0.1 C400.23 -0.1 411.76 -0.1 423.29 -0.11 C434.87 -0.11 446.46 -0.11 458.04 -0.11 C464.32 -0.11 470.6 -0.11 476.88 -0.12 C482.62 -0.12 488.36 -0.12 494.1 -0.12 C496.18 -0.12 498.27 -0.12 500.35 -0.12 C503.17 -0.13 505.99 -0.13 508.8 -0.12 C509.63 -0.13 510.46 -0.13 511.31 -0.13 C516.89 -0.11 516.89 -0.11 518 1 C518.09 2.78 518.12 4.56 518.11 6.35 C518.11 8.08 518.11 8.08 518.11 9.85 C518.11 11.69 518.11 11.69 518.1 13.57 C518.1 14.69 518.1 15.81 518.09 16.96 C518.09 21.16 518.08 25.36 518.06 29.56 C518.04 38.95 518.02 48.33 518 58 C483.35 58.33 448.7 58.66 413 59 C412.67 129.29 412.34 199.58 412 272 C411.01 272 410.02 272 409 272 C409 272.66 409 273.32 409 274 C409.83 274.09 410.66 274.18 411.51 274.27 C415.71 275.15 419.08 276.74 422.88 278.69 C423.58 279.04 424.28 279.4 425.01 279.77 C430.09 282.41 434.67 285.21 439 289 C439 289.66 439 290.32 439 291 C439.57 291.24 440.15 291.49 440.74 291.74 C454.64 299.51 463.62 319.42 468 334 C468.34 335.1 468.68 336.21 469.03 337.35 C474.73 359.4 471.11 384.37 460.22 404.25 C455.33 411.94 449.37 418.54 443 425 C442.27 425.74 441.54 426.49 440.79 427.25 C424.38 442.87 401.61 449.56 379.39 449.42 C357.82 448.85 335.97 440.88 320 426 C320 425.34 320 424.68 320 424 C319.13 423.63 319.13 423.63 318.25 423.25 C315.67 421.82 313.94 420.22 312 418 C312 417.34 312 416.68 312 416 C311.34 416 310.68 416 310 416 C308.29 413.62 306.72 411.25 305.19 408.75 C304.74 408.02 304.29 407.29 303.82 406.54 C291.18 385.63 287.77 360.8 293.47 337.03 C299.35 314.55 312.95 294.1 333.13 282.11 C338.08 279.29 342.76 276.99 348.25 275.39 C349.14 275.12 350.03 274.86 350.95 274.59 C351.63 274.4 352.3 274.2 353 274 C352.92 246.26 352.82 218.53 352.71 190.79 C352.66 177.91 352.62 165.03 352.58 152.15 C352.55 140.93 352.51 129.71 352.46 118.49 C352.43 112.55 352.41 106.6 352.4 100.66 C352.38 95.07 352.36 89.48 352.33 83.89 C352.32 81.83 352.32 79.78 352.32 77.72 C352.31 74.92 352.3 72.12 352.28 69.33 C352.28 68.09 352.28 68.09 352.28 66.83 C352.41 62.45 352.41 62.45 350 59 C347.8 58.7 347.8 58.7 345.22 58.75 C344.21 58.75 343.2 58.75 342.15 58.74 C341.03 58.75 339.91 58.75 338.75 58.76 C337.56 58.76 336.38 58.76 335.16 58.75 C331.85 58.75 328.55 58.76 325.25 58.77 C321.69 58.78 318.14 58.77 314.58 58.77 C308.41 58.77 302.25 58.78 296.08 58.79 C287.17 58.8 278.25 58.81 269.34 58.81 C254.87 58.82 240.41 58.83 225.95 58.85 C211.9 58.87 197.84 58.88 183.79 58.89 C182.49 58.89 182.49 58.89 181.17 58.89 C176.83 58.89 172.48 58.9 168.14 58.9 C132.09 58.92 96.05 58.96 60 59 C59.67 74.18 59.34 89.36 59 105 C62.25 106.08 64.62 106.14 68.04 106.15 C69.94 106.16 69.94 106.16 71.87 106.18 C73.27 106.18 74.68 106.19 76.08 106.19 C77.55 106.2 79.03 106.21 80.5 106.21 C83.68 106.23 86.86 106.25 90.04 106.26 C95.06 106.28 100.08 106.31 105.1 106.34 C116.66 106.4 128.22 106.46 139.78 106.51 C150.38 106.56 160.98 106.62 171.58 106.68 C176.57 106.71 181.57 106.73 186.56 106.75 C189.66 106.76 192.77 106.78 195.87 106.8 C197.31 106.81 198.75 106.81 200.2 106.82 C202.16 106.82 204.12 106.84 206.09 106.85 C207.19 106.85 208.29 106.86 209.42 106.86 C212 107 212 107 214 108 C214 126.81 214 145.62 214 165 C163.18 165.33 112.36 165.66 60 166 C60 180.85 60 195.7 60 211 C61.94 212.94 65.64 212.15 68.29 212.15 C69.06 212.16 69.83 212.16 70.63 212.16 C73.23 212.18 75.84 212.18 78.45 212.19 C80.31 212.2 82.17 212.21 84.03 212.21 C88.05 212.23 92.06 212.25 96.08 212.26 C102.42 212.28 108.76 212.31 115.11 212.34 C128.57 212.4 142.04 212.45 155.5 212.5 C170.03 212.56 184.57 212.61 199.1 212.68 C205.41 212.71 211.73 212.73 218.04 212.75 C221.96 212.76 225.88 212.78 229.8 212.8 C231.62 212.81 233.45 212.81 235.27 212.82 C237.75 212.82 240.23 212.83 242.71 212.85 C243.44 212.85 244.17 212.85 244.93 212.85 C249.89 212.89 249.89 212.89 251 214 C251.09 215.81 251.12 217.62 251.11 219.44 C251.11 220.6 251.11 221.76 251.11 222.96 C251.11 224.22 251.1 225.48 251.1 226.79 C251.1 228.71 251.1 228.71 251.09 230.68 C251.09 234.11 251.08 237.53 251.07 240.96 C251.06 244.45 251.05 247.94 251.05 251.43 C251.04 258.29 251.02 265.14 251 272 C219.17 272.02 187.34 272.04 155.51 272.05 C151.75 272.05 148 272.05 144.24 272.05 C143.12 272.06 143.12 272.06 141.98 272.06 C129.86 272.06 117.74 272.07 105.63 272.08 C93.2 272.09 80.78 272.09 68.35 272.09 C60.68 272.1 53.01 272.1 45.33 272.11 C39.46 272.11 33.59 272.11 27.71 272.11 C25.3 272.11 22.88 272.12 20.46 272.12 C17.18 272.12 13.9 272.12 10.61 272.12 C9.16 272.12 9.16 272.12 7.67 272.13 C6.8 272.13 5.93 272.13 5.03 272.12 C4.27 272.12 3.51 272.12 2.73 272.12 C1 272 1 272 0 271 C-0.1 269.55 -0.12 268.1 -0.12 266.64 C-0.13 265.7 -0.13 264.75 -0.13 263.78 C-0.13 262.73 -0.12 261.67 -0.12 260.59 C-0.12 259.48 -0.12 258.38 -0.12 257.24 C-0.12 253.49 -0.12 249.75 -0.11 246.01 C-0.11 243.34 -0.11 240.67 -0.11 238 C-0.11 232.23 -0.11 226.47 -0.11 220.71 C-0.1 212.37 -0.1 204.04 -0.09 195.7 C-0.09 182.18 -0.08 168.66 -0.08 155.14 C-0.07 142 -0.06 128.87 -0.05 115.73 C-0.05 114.92 -0.05 114.11 -0.05 113.28 C-0.05 109.22 -0.05 105.16 -0.05 101.1 C-0.04 67.4 -0.02 33.7 0 0 Z " fill="#FA5707" transform="translate(535,235)"/>
<path d="M0 0 C27.79 -0.09 55.58 -0.16 83.37 -0.21 C96.28 -0.23 109.18 -0.26 122.09 -0.3 C133.34 -0.34 144.59 -0.37 155.84 -0.38 C161.79 -0.38 167.75 -0.39 173.7 -0.42 C179.32 -0.45 184.93 -0.46 190.54 -0.45 C192.59 -0.45 194.64 -0.46 196.7 -0.48 C214.7 -0.61 230.01 1.39 243.75 14.31 C257.52 29.1 261.34 44.36 261.23 64.06 C261.23 65.5 261.23 66.95 261.23 68.39 C261.23 71.39 261.22 74.4 261.21 77.4 C261.19 81.23 261.18 85.05 261.19 88.88 C261.19 91.85 261.18 94.82 261.17 97.8 C261.17 99.21 261.17 100.62 261.17 102.03 C261.16 109.11 261.06 116.06 260.11 123.08 C259.94 125.95 260.9 127.46 262.62 129.69 C270.74 141.54 271.76 153.98 271.63 167.85 C271.63 169.53 271.63 171.2 271.64 172.87 C271.64 176.35 271.62 179.83 271.6 183.32 C271.56 187.74 271.57 192.17 271.59 196.59 C271.6 200.04 271.59 203.49 271.57 206.93 C271.57 208.56 271.57 210.19 271.58 211.82 C271.62 229 267.96 242.91 255.88 255.69 C240.03 271.21 221.9 272.61 200.95 272.49 C198.76 272.49 196.58 272.49 194.39 272.5 C188.5 272.51 182.61 272.49 176.72 272.47 C170.54 272.45 164.37 272.46 158.19 272.46 C147.84 272.46 137.48 272.44 127.13 272.41 C115.15 272.38 103.17 272.37 91.19 272.37 C79.66 272.37 68.12 272.36 56.59 272.35 C51.68 272.34 46.77 272.33 41.87 272.33 C36.1 272.33 30.34 272.32 24.57 272.3 C22.45 272.29 20.33 272.29 18.21 272.29 C15.33 272.29 12.45 272.28 9.57 272.27 C8.72 272.27 7.87 272.27 7 272.28 C1.23 272.23 1.23 272.23 -1 270 C-1.25 268.05 -1.25 268.05 -1.25 265.61 C-1.25 264.68 -1.26 263.75 -1.26 262.8 C-1.26 261.77 -1.25 260.75 -1.25 259.69 C-1.25 258.6 -1.25 257.52 -1.25 256.4 C-1.26 252.74 -1.25 249.08 -1.24 245.42 C-1.24 242.8 -1.25 240.19 -1.25 237.58 C-1.25 231.2 -1.25 224.82 -1.24 218.44 C-1.23 211.01 -1.23 203.59 -1.23 196.16 C-1.23 182.92 -1.22 169.67 -1.21 156.42 C-1.19 143.56 -1.18 130.7 -1.19 117.84 C-1.19 117.05 -1.19 116.26 -1.19 115.44 C-1.19 114.65 -1.19 113.86 -1.19 113.05 C-1.19 98.42 -1.18 83.79 -1.17 69.16 C-1.17 63.98 -1.17 58.8 -1.17 53.62 C-1.17 46.66 -1.16 39.69 -1.15 32.72 C-1.15 30.16 -1.15 27.59 -1.15 25.03 C-1.15 21.54 -1.14 18.05 -1.13 14.57 C-1.14 13.54 -1.14 12.52 -1.14 11.47 C-1.14 10.54 -1.13 9.6 -1.13 8.64 C-1.13 7.84 -1.13 7.03 -1.13 6.2 C-1 4.01 -0.6 2.1 0 0 Z " fill="#FA5707" transform="translate(250,235)"/>
<path d="M0 0 C3.83 3.21 7.76 6.56 10.94 10.44 C10.94 11.1 10.94 11.76 10.94 12.44 C11.6 12.44 12.26 12.44 12.94 12.44 C23.96 27.61 30.55 44.35 30.44 63.19 C30.43 64.32 30.43 65.45 30.42 66.62 C30.23 76.05 28.68 83.77 24.94 92.44 C24.55 93.36 24.17 94.29 23.77 95.24 C14.87 114.72 -1.48 128.57 -21.06 136.44 C-22.07 136.85 -23.08 137.27 -24.12 137.7 C-42.6 144.15 -63.61 141.75 -81.08 133.61 C-88.79 129.81 -95.67 125.2 -102.06 119.44 C-102.83 118.77 -103.6 118.11 -104.39 117.43 C-116.08 106.67 -124.96 88.64 -126.28 72.79 C-127.18 50.46 -122.98 29.8 -108.06 12.44 C-107.26 11.39 -107.26 11.39 -106.44 10.32 C-80.82 -21.48 -31.41 -23.68 0 0 Z " fill="#FDFDFD" transform="translate(964.0625,531.5625)"/>
<path d="M0 0 C0.82 -0.01 1.65 -0.01 2.5 -0.02 C5.2 -0.03 7.91 -0.03 10.61 -0.03 C12.51 -0.03 14.4 -0.03 16.3 -0.04 C20.26 -0.05 24.23 -0.05 28.19 -0.04 C33.25 -0.04 38.31 -0.05 43.37 -0.08 C47.28 -0.09 51.19 -0.09 55.11 -0.09 C56.97 -0.09 58.83 -0.09 60.7 -0.1 C84.7 -0.22 84.7 -0.22 93.33 8.13 C94.39 9.19 94.39 9.19 95.47 10.27 C96.84 11.52 96.84 11.52 98.24 12.79 C99.21 13.7 100.18 14.61 101.16 15.52 C102.05 16.35 102.94 17.18 103.86 18.04 C110.6 25.58 112.22 34.44 112.1 44.22 C112.1 45.32 112.1 46.42 112.11 47.55 C112.1 49.85 112.09 52.15 112.07 54.45 C112.03 57.96 112.05 61.47 112.07 64.98 C112.06 67.23 112.05 69.48 112.04 71.72 C112.04 72.76 112.05 73.8 112.05 74.87 C111.92 82.96 110.2 88.72 104.42 94.51 C102.78 96.02 101.12 97.49 99.45 98.96 C97.64 100.59 97.64 100.59 95.47 103.27 C95.7 107.74 97.85 110.91 100.18 114.64 C100.55 115.24 100.92 115.84 101.3 116.45 C102.47 118.36 103.66 120.25 104.84 122.15 C106.02 124.04 107.2 125.93 108.37 127.82 C109.44 129.55 110.51 131.27 111.58 132.99 C116.39 141.37 116.39 141.37 116.59 146.34 C114.97 150.58 112.3 152.9 108.47 155.27 C105.48 156.08 102.66 156.1 99.57 156.04 C98.74 156.04 97.9 156.04 97.04 156.05 C95.29 156.05 93.53 156.03 91.77 156 C89.11 155.96 86.45 155.98 83.78 156.01 C66.54 156.01 66.54 156.01 60.47 150.27 C58.65 147.98 57.41 146.18 56.09 143.65 C55.55 142.7 55.55 142.7 55 141.73 C53.32 138.76 51.72 135.76 50.15 132.74 C49.23 130.98 48.3 129.23 47.36 127.48 C46.45 125.79 45.57 124.08 44.71 122.36 C42.38 117.88 42.38 117.88 38.12 115.52 C35.87 115.26 33.74 115.17 31.47 115.27 C31.5 116.21 31.53 117.14 31.56 118.1 C31.67 121.59 31.74 125.07 31.8 128.56 C31.83 130.07 31.87 131.57 31.92 133.07 C32.4 147.19 32.4 147.19 28.57 151.74 C24.58 155.42 21.16 155.46 15.9 155.51 C14.77 155.53 14.77 155.53 13.61 155.54 C12.01 155.55 10.41 155.56 8.8 155.57 C6.37 155.59 3.95 155.63 1.52 155.68 C-13.55 155.83 -13.55 155.83 -19.53 151.27 C-21.39 147.64 -21.78 144.64 -21.79 140.59 C-21.8 139.45 -21.81 138.32 -21.81 137.15 C-21.81 135.92 -21.81 134.68 -21.81 133.41 C-21.81 132.1 -21.82 130.79 -21.82 129.45 C-21.83 125.87 -21.83 122.29 -21.83 118.7 C-21.83 115.71 -21.84 112.72 -21.84 109.73 C-21.85 102.67 -21.85 95.61 -21.85 88.55 C-21.84 81.27 -21.85 73.99 -21.87 66.72 C-21.89 60.46 -21.9 54.21 -21.89 47.96 C-21.89 44.22 -21.89 40.49 -21.91 36.76 C-21.92 32.59 -21.91 28.43 -21.9 24.27 C-21.91 22.42 -21.91 22.42 -21.93 20.53 C-21.88 13.7 -21.33 9.2 -17.28 3.52 C-12.23 -0.08 -5.95 -0.02 0 0 Z " fill="#FCFCFC" transform="translate(584.530517578125,509.725341796875)"/>
<path d="M0 0 C13 -0.05 26.01 -0.08 39.01 -0.1 C45.05 -0.11 51.09 -0.13 57.12 -0.15 C62.95 -0.17 68.77 -0.18 74.59 -0.19 C76.82 -0.19 79.04 -0.2 81.27 -0.21 C84.38 -0.23 87.49 -0.23 90.59 -0.23 C91.99 -0.24 91.99 -0.24 93.41 -0.25 C94.25 -0.25 95.09 -0.24 95.96 -0.24 C96.7 -0.24 97.43 -0.24 98.19 -0.25 C100 0 100 0 102 2 C102 11.57 102 21.14 102 31 C79.23 31.33 56.46 31.66 33 32 C33.5 42.39 33.5 42.39 34 53 C36.55 54.27 38.29 54.1 41.14 54.07 C42.21 54.06 43.28 54.05 44.38 54.04 C45.54 54.02 46.71 54.01 47.9 53.99 C50.34 53.97 52.78 53.96 55.22 53.94 C59.09 53.91 62.95 53.87 66.81 53.83 C70.53 53.79 74.25 53.76 77.96 53.74 C79.7 53.71 79.7 53.71 81.48 53.69 C82.55 53.68 83.63 53.68 84.73 53.68 C86.15 53.66 86.15 53.66 87.6 53.65 C90 54 90 54 91.81 55.37 C93.51 57.7 93.36 59.42 93.33 62.29 C93.32 63.31 93.32 64.34 93.31 65.39 C93.29 66.46 93.27 67.53 93.25 68.62 C93.24 69.7 93.24 70.78 93.23 71.88 C93.15 79.85 93.15 79.85 92 81 C90.16 81.12 88.31 81.18 86.47 81.21 C85.29 81.23 84.11 81.25 82.89 81.27 C81.61 81.28 80.32 81.3 79 81.32 C77.69 81.34 76.38 81.36 75.03 81.38 C71.55 81.43 68.06 81.48 64.58 81.53 C61.03 81.58 57.48 81.64 53.92 81.69 C46.95 81.8 39.97 81.9 33 82 C33.14 85.31 33.29 88.63 33.44 91.94 C33.48 92.88 33.52 93.83 33.56 94.8 C33.6 95.7 33.64 96.6 33.68 97.53 C33.74 98.78 33.74 98.78 33.79 100.05 C33.79 102 33.79 102 35 103 C37.01 103.11 39.03 103.16 41.05 103.17 C42.34 103.19 43.64 103.2 44.97 103.21 C45.67 103.22 46.36 103.22 47.08 103.23 C49.25 103.25 51.43 103.27 53.6 103.29 C59.78 103.37 65.96 103.43 72.13 103.48 C75.91 103.51 79.68 103.55 83.46 103.6 C84.9 103.61 86.34 103.63 87.78 103.63 C89.79 103.65 91.81 103.67 93.82 103.7 C94.97 103.71 96.12 103.72 97.3 103.73 C100 104 100 104 102 106 C102.23 108.89 102.23 108.89 102.2 112.54 C102.19 113.84 102.18 115.14 102.18 116.48 C102.16 117.86 102.14 119.24 102.12 120.62 C102.11 122.01 102.11 123.4 102.1 124.79 C102.07 128.19 102.04 131.6 102 135 C88.72 135.02 75.44 135.04 62.15 135.05 C55.99 135.06 49.82 135.06 43.65 135.08 C37.71 135.09 31.76 135.09 25.82 135.09 C23.54 135.1 21.27 135.1 19 135.11 C15.82 135.11 12.65 135.11 9.48 135.11 C8.53 135.12 7.58 135.12 6.6 135.12 C0.11 135.11 0.11 135.11 -1 134 C-1.1 132.3 -1.13 130.59 -1.13 128.88 C-1.13 127.77 -1.13 126.66 -1.14 125.52 C-1.13 124.29 -1.13 123.07 -1.13 121.8 C-1.13 120.52 -1.13 119.23 -1.13 117.91 C-1.14 114.38 -1.14 110.84 -1.13 107.31 C-1.13 103.62 -1.13 99.93 -1.14 96.24 C-1.14 90.04 -1.14 83.84 -1.13 77.64 C-1.12 70.46 -1.13 63.29 -1.13 56.11 C-1.14 49.96 -1.14 43.81 -1.13 37.66 C-1.13 33.98 -1.13 30.3 -1.14 26.63 C-1.14 22.53 -1.13 18.43 -1.13 14.33 C-1.13 13.1 -1.13 11.88 -1.14 10.61 C-1.13 9.5 -1.13 8.39 -1.13 7.25 C-1.13 6.27 -1.13 5.3 -1.13 4.3 C-1 2 -1 2 0 0 Z " fill="#FCFCFC" transform="translate(441,520)"/>
<path d="M0 0 C0.77 -0 1.54 -0.01 2.33 -0.01 C4.87 -0.02 7.4 -0.02 9.94 -0.02 C11.71 -0.03 13.47 -0.03 15.23 -0.03 C18.92 -0.04 22.62 -0.04 26.31 -0.04 C31.05 -0.04 35.79 -0.05 40.53 -0.07 C44.17 -0.08 47.81 -0.08 51.44 -0.08 C53.19 -0.08 54.94 -0.09 56.69 -0.1 C59.13 -0.11 61.57 -0.1 64.01 -0.1 C64.73 -0.1 65.46 -0.11 66.21 -0.11 C71.21 -0.08 71.21 -0.08 73.44 2.15 C73.68 5.11 73.68 5.11 73.67 8.87 C73.67 9.53 73.67 10.19 73.67 10.87 C73.67 12.27 73.66 13.66 73.65 15.06 C73.63 17.2 73.62 19.35 73.62 21.49 C73.59 32 73.59 32 72.44 33.15 C70.43 33.26 68.41 33.31 66.39 33.33 C65.1 33.35 63.8 33.37 62.47 33.39 C61.77 33.39 61.07 33.4 60.36 33.41 C58.18 33.43 56.01 33.45 53.84 33.48 C49.23 33.54 44.61 33.59 40 33.65 C34.66 33.7 29.32 33.77 23.98 33.84 C21.84 33.86 19.69 33.88 17.55 33.91 C16.25 33.92 14.95 33.94 13.62 33.96 C11.9 33.97 11.9 33.97 10.14 33.99 C7.47 33.96 7.47 33.96 5.44 35.15 C5.11 56.93 4.78 78.71 4.44 101.15 C7.72 102.24 10.17 102.29 13.62 102.32 C15.54 102.34 15.54 102.34 17.49 102.36 C18.17 102.36 18.85 102.37 19.55 102.38 C21.68 102.39 23.81 102.41 25.94 102.44 C32 102.51 38.05 102.57 44.11 102.62 C47.82 102.65 51.52 102.7 55.23 102.74 C56.64 102.76 58.05 102.77 59.47 102.78 C61.44 102.79 63.41 102.82 65.38 102.84 C66.51 102.85 67.63 102.86 68.79 102.87 C71.44 103.15 71.44 103.15 73.44 105.15 C73.67 108.13 73.67 108.13 73.63 111.9 C73.63 112.57 73.63 113.23 73.63 113.91 C73.61 116.03 73.59 118.15 73.56 120.27 C73.55 121.71 73.55 123.14 73.54 124.58 C73.51 128.1 73.48 131.62 73.44 135.15 C62.96 135.61 52.49 135.97 42.01 136.18 C37.14 136.29 32.28 136.42 27.41 136.65 C-8.33 138.29 -8.33 138.29 -19.58 128.05 C-26.85 120.21 -30.71 114.72 -30.72 103.93 C-30.73 103.09 -30.73 102.25 -30.74 101.39 C-30.75 98.62 -30.76 95.84 -30.76 93.07 C-30.77 91.14 -30.78 89.21 -30.78 87.28 C-30.79 83.23 -30.8 79.18 -30.8 75.13 C-30.81 69.95 -30.83 64.77 -30.86 59.59 C-30.88 55.61 -30.88 51.62 -30.88 47.63 C-30.89 45.72 -30.9 43.81 -30.91 41.91 C-30.93 39.23 -30.92 36.55 -30.92 33.88 C-30.93 33.1 -30.94 32.31 -30.95 31.5 C-30.89 24.28 -28.9 18.96 -23.65 13.78 C-22.91 13.04 -22.17 12.3 -21.4 11.54 C-20.63 10.79 -19.86 10.04 -19.06 9.27 C-18.29 8.5 -17.52 7.73 -16.72 6.93 C-11.09 1.39 -7.95 -0 0 0 Z " fill="#FDFDFD" transform="translate(335.560791015625,519.854736328125)"/>
<path d="M0 0 C1.26 -0.01 2.52 -0.01 3.82 -0.02 C5.23 -0.01 6.64 -0.01 8.04 -0 C9.52 -0.01 10.99 -0.01 12.47 -0.02 C16.48 -0.02 20.49 -0.02 24.5 -0.01 C28.7 -0.01 32.89 -0.01 37.08 -0.02 C44.12 -0.02 51.16 -0.02 58.21 -0.01 C66.36 0 74.5 0 82.65 -0.01 C89.64 -0.02 96.63 -0.02 103.62 -0.02 C107.79 -0.01 111.97 -0.01 116.15 -0.02 C120.08 -0.02 124 -0.02 127.93 -0.01 C129.37 -0.01 130.82 -0.01 132.26 -0.01 C134.23 -0.02 136.19 -0.01 138.16 0 C139.81 0 139.81 0 141.5 0 C144.08 0.25 144.08 0.25 146.08 2.25 C146.33 4.27 146.33 4.27 146.32 6.78 C146.32 7.72 146.33 8.65 146.33 9.62 C146.32 11.14 146.32 11.14 146.31 12.7 C146.31 13.73 146.31 14.77 146.31 15.84 C146.3 18.04 146.3 20.23 146.28 22.43 C146.27 25.81 146.26 29.18 146.26 32.56 C146.26 34.69 146.25 36.82 146.25 38.95 C146.25 39.96 146.24 40.98 146.24 42.03 C146.24 42.96 146.23 43.89 146.22 44.86 C146.22 45.68 146.22 46.51 146.21 47.36 C146.08 49.25 146.08 49.25 145.08 50.25 C143.13 50.35 141.19 50.38 139.24 50.39 C137.97 50.39 136.7 50.4 135.39 50.4 C133.97 50.4 132.55 50.4 131.14 50.4 C129.65 50.4 128.17 50.41 126.68 50.41 C122.64 50.42 118.59 50.42 114.55 50.42 C111.18 50.42 107.81 50.43 104.44 50.43 C96.49 50.44 88.55 50.44 80.6 50.44 C72.39 50.44 64.18 50.45 55.97 50.47 C48.93 50.48 41.89 50.48 34.85 50.48 C30.64 50.48 26.43 50.49 22.22 50.5 C18.27 50.51 14.31 50.51 10.35 50.5 C8.9 50.5 7.44 50.5 5.99 50.51 C4.01 50.51 2.03 50.51 0.04 50.5 C-1.07 50.5 -2.18 50.5 -3.32 50.5 C-5.92 50.25 -5.92 50.25 -7.92 48.25 C-8.18 46.28 -8.18 46.28 -8.18 43.84 C-8.19 42.92 -8.19 42.01 -8.2 41.07 C-8.2 40.08 -8.19 39.09 -8.19 38.07 C-8.19 37.05 -8.19 36.04 -8.19 35 C-8.19 32.85 -8.19 30.7 -8.18 28.56 C-8.17 25.27 -8.18 21.98 -8.2 18.68 C-8.19 16.6 -8.19 14.52 -8.19 12.44 C-8.19 11.45 -8.2 10.46 -8.2 9.44 C-8.19 8.53 -8.19 7.61 -8.18 6.67 C-8.18 5.87 -8.18 5.06 -8.18 4.23 C-7.55 -0.6 -3.97 0 0 0 Z " fill="#FDFDFD" transform="translate(315.921630859375,397.74603271484375)"/>
<path d="M0 0 C0.82 -0.01 1.64 -0.01 2.48 -0.02 C3.82 -0.02 3.82 -0.02 5.18 -0.02 C6.13 -0.03 7.08 -0.03 8.05 -0.04 C11.18 -0.05 14.3 -0.06 17.43 -0.06 C19.6 -0.07 21.78 -0.07 23.95 -0.08 C28.51 -0.09 33.07 -0.1 37.63 -0.1 C43.47 -0.11 49.31 -0.13 55.15 -0.16 C59.64 -0.18 64.13 -0.18 68.62 -0.18 C70.78 -0.19 72.93 -0.19 75.08 -0.21 C78.09 -0.22 81.1 -0.22 84.12 -0.22 C85 -0.23 85.89 -0.23 86.8 -0.24 C92.24 -0.21 96.03 0.57 100.85 3.14 C106.9 9.94 106.54 18.87 106.35 27.45 C106.35 29.33 106.35 29.33 106.35 31.24 C106.27 39.07 105.62 42.86 100.5 48.91 C95.63 52.72 89.23 51.87 83.35 51.85 C82.05 51.86 80.75 51.88 79.41 51.89 C75.97 51.93 72.53 51.94 69.08 51.95 C65.56 51.96 62.04 51.99 58.53 52.03 C51.63 52.09 44.74 52.13 37.85 52.14 C37.52 53.13 37.19 54.12 36.85 55.14 C37.46 55.13 38.08 55.13 38.71 55.12 C45.12 55.05 51.53 55.01 57.93 54.98 C60.32 54.96 62.72 54.94 65.11 54.91 C68.54 54.88 71.98 54.86 75.42 54.85 C76.49 54.83 77.56 54.82 78.66 54.8 C88.04 54.8 88.04 54.8 91.85 58.14 C96.82 64.05 96.45 71.45 96.35 78.77 C96.37 80.42 96.37 80.42 96.39 82.12 C96.36 88.43 96.08 92.35 91.85 97.14 C91.33 97.74 90.81 98.34 90.28 98.95 C87.4 101.34 84.48 101.26 80.92 101.25 C79.91 101.25 78.91 101.25 77.88 101.25 C76.8 101.25 75.73 101.24 74.62 101.24 C73.51 101.24 72.4 101.24 71.26 101.23 C67.73 101.23 64.19 101.22 60.66 101.2 C58.26 101.2 55.87 101.19 53.47 101.19 C47.6 101.18 41.72 101.16 35.85 101.14 C36.18 101.8 36.51 102.46 36.85 103.14 C37.54 103.15 38.24 103.15 38.96 103.16 C45.57 103.22 52.17 103.29 58.78 103.38 C62.17 103.42 65.57 103.46 68.96 103.49 C72.87 103.52 76.78 103.57 80.69 103.63 C81.9 103.64 83.11 103.64 84.36 103.65 C97.56 103.88 97.56 103.88 102.6 108.89 C106.63 116 106.56 122.8 106.41 130.83 C106.42 132.12 106.43 133.41 106.44 134.74 C106.35 146.48 106.35 146.48 101.85 151.14 C101.18 151.84 100.52 152.54 99.83 153.26 C95.51 155.98 91.77 155.7 86.75 155.66 C85.23 155.67 85.23 155.67 83.68 155.68 C80.33 155.7 76.98 155.69 73.63 155.67 C71.3 155.67 68.97 155.68 66.64 155.68 C61.76 155.69 56.88 155.68 51.99 155.66 C45.74 155.64 39.49 155.65 33.23 155.68 C28.42 155.69 23.61 155.69 18.79 155.68 C16.49 155.67 14.18 155.68 11.88 155.69 C8.65 155.7 5.43 155.68 2.2 155.66 C1.25 155.67 0.3 155.67 -0.68 155.68 C-6.65 155.61 -10.36 154.81 -15.15 151.14 C-17.02 147.5 -17.41 144.48 -17.42 140.42 C-17.43 139.27 -17.44 138.13 -17.45 136.95 C-17.45 135.71 -17.45 134.47 -17.44 133.18 C-17.45 131.87 -17.46 130.55 -17.47 129.19 C-17.48 125.58 -17.49 121.98 -17.49 118.37 C-17.49 116.11 -17.49 113.86 -17.5 111.6 C-17.52 103.73 -17.53 95.86 -17.52 87.99 C-17.52 80.66 -17.54 73.32 -17.58 65.99 C-17.6 59.69 -17.61 53.39 -17.61 47.09 C-17.61 43.33 -17.62 39.57 -17.64 35.81 C-17.66 31.61 -17.65 27.42 -17.64 23.23 C-17.65 21.98 -17.66 20.74 -17.67 19.46 C-17.63 13.09 -17.58 8.92 -13.15 4.14 C-8.92 1.07 -5.17 0.02 0 0 Z M-5.15 10.14 C-6.44 12.7 -6.28 14.51 -6.28 17.39 C-6.28 18.5 -6.29 19.61 -6.29 20.76 C-6.29 21.98 -6.29 23.21 -6.28 24.47 C-6.29 25.75 -6.29 27.04 -6.29 28.37 C-6.29 31.9 -6.29 35.43 -6.29 38.96 C-6.29 42.66 -6.29 46.35 -6.29 50.04 C-6.29 56.24 -6.29 62.43 -6.28 68.63 C-6.28 75.81 -6.28 82.98 -6.29 90.16 C-6.29 96.31 -6.29 102.46 -6.29 108.62 C-6.29 112.29 -6.29 115.97 -6.29 119.65 C-6.29 123.75 -6.29 127.84 -6.28 131.94 C-6.29 133.17 -6.29 134.4 -6.29 135.66 C-6.29 136.77 -6.28 137.88 -6.28 139.02 C-6.28 139.99 -6.28 140.96 -6.28 141.96 C-6.4 144.12 -6.4 144.12 -5.15 145.14 C-1.99 145.24 1.16 145.27 4.32 145.25 C5.32 145.25 6.31 145.25 7.34 145.25 C10.64 145.25 13.95 145.25 17.26 145.24 C19.54 145.24 21.83 145.23 24.11 145.23 C30.14 145.23 36.17 145.22 42.2 145.21 C48.34 145.2 54.49 145.19 60.64 145.19 C72.71 145.18 84.78 145.16 96.85 145.14 C96.9 141.05 96.93 136.95 96.96 132.86 C96.97 131.47 96.98 130.07 97 128.68 C97.02 126.68 97.03 124.68 97.04 122.68 C97.05 121.48 97.06 120.27 97.07 119.03 C97.15 116.01 97.15 116.01 94.85 114.14 C92.02 113.81 92.02 113.81 88.67 113.84 C87.37 113.82 86.07 113.8 84.73 113.79 C83.31 113.78 81.89 113.77 80.47 113.76 C79.01 113.75 77.56 113.73 76.11 113.71 C72.29 113.66 68.46 113.63 64.64 113.6 C58.51 113.55 52.38 113.48 46.25 113.41 C44.11 113.39 41.96 113.37 39.82 113.35 C38.52 113.34 37.23 113.33 35.89 113.31 C34.17 113.3 34.17 113.3 32.42 113.29 C29.85 113.14 29.85 113.14 28.85 112.14 C28.69 110.65 28.59 109.16 28.53 107.67 C28.49 106.77 28.45 105.87 28.4 104.94 C28.36 104 28.32 103.05 28.28 102.08 C28.24 101.13 28.2 100.18 28.15 99.2 C28.05 96.85 27.94 94.49 27.85 92.14 C28.95 92.12 28.95 92.12 30.08 92.11 C37.01 92.01 43.94 91.91 50.87 91.8 C54.44 91.75 58 91.69 61.56 91.64 C65.66 91.59 69.75 91.52 73.84 91.46 C75.13 91.44 76.41 91.42 77.74 91.41 C78.92 91.39 80.1 91.37 81.32 91.35 C82.36 91.33 83.41 91.31 84.49 91.3 C86.8 91.4 86.8 91.4 87.85 90.14 C88.13 86.36 88.08 82.56 88.1 78.77 C88.12 77.7 88.14 76.63 88.16 75.53 C88.16 74.51 88.17 73.48 88.17 72.43 C88.18 71.49 88.19 70.55 88.2 69.58 C87.77 66.61 87.21 65.93 84.85 64.14 C82.33 63.71 82.33 63.71 79.47 63.82 C78.37 63.82 77.28 63.82 76.15 63.83 C74.96 63.84 73.78 63.86 72.56 63.88 C71.34 63.89 70.13 63.9 68.88 63.9 C64.99 63.93 61.11 63.97 57.22 64.02 C53.33 64.05 49.44 64.08 45.54 64.11 C43.12 64.12 40.69 64.15 38.27 64.18 C37.18 64.19 36.08 64.2 34.96 64.21 C33.99 64.22 33.03 64.23 32.03 64.24 C29.85 64.14 29.85 64.14 28.85 63.14 C28.35 52.75 28.35 52.75 27.85 42.14 C50.62 41.81 73.39 41.48 96.85 41.14 C96.85 31.57 96.85 22 96.85 12.14 C95.1 9.99 95.1 9.99 93.04 9.89 C92.3 9.9 91.57 9.9 90.81 9.9 C89.96 9.9 89.12 9.89 88.25 9.89 C86.86 9.9 86.86 9.9 85.44 9.91 C84.46 9.91 83.49 9.91 82.48 9.91 C79.25 9.91 76.01 9.93 72.78 9.95 C70.54 9.95 68.3 9.95 66.06 9.95 C60.16 9.96 54.25 9.98 48.35 10 C42.33 10.02 36.31 10.03 30.29 10.04 C18.48 10.06 6.66 10.1 -5.15 10.14 Z " fill="#040807" transform="translate(446.1543731689453,509.85955810546875)"/>
<path d="M0 0 C0.91 0 1.83 0 2.77 0.01 C3.73 0 4.69 -0 5.68 -0.01 C8.87 -0.02 12.06 -0.02 15.25 -0.02 C17.46 -0.02 19.67 -0.03 21.88 -0.03 C26.51 -0.04 31.15 -0.04 35.79 -0.03 C41.74 -0.03 47.69 -0.04 53.64 -0.07 C58.2 -0.08 62.76 -0.08 67.33 -0.08 C69.52 -0.08 71.72 -0.09 73.91 -0.1 C76.98 -0.11 80.04 -0.1 83.11 -0.09 C84.02 -0.1 84.93 -0.11 85.87 -0.11 C86.7 -0.11 87.54 -0.1 88.4 -0.09 C89.12 -0.09 89.85 -0.09 90.59 -0.09 C93.09 0.4 93.98 1.28 95.5 3.28 C95.86 6.27 95.86 6.27 95.83 9.88 C95.82 11.18 95.82 12.47 95.81 13.81 C95.8 14.48 95.79 15.15 95.78 15.84 C95.75 17.91 95.74 19.97 95.74 22.03 C95.66 32.13 95.66 32.13 94.5 33.28 C92.06 33.44 89.63 33.54 87.19 33.6 C86.45 33.62 85.72 33.64 84.97 33.66 C82.63 33.73 80.28 33.79 77.94 33.84 C76.35 33.89 74.77 33.93 73.18 33.98 C69.29 34.08 65.4 34.18 61.5 34.28 C61.49 35.53 61.48 36.78 61.47 38.07 C61.37 49.83 61.27 61.59 61.16 73.35 C61.11 79.39 61.05 85.44 61 91.48 C60.96 97.31 60.9 103.14 60.85 108.97 C60.83 111.2 60.81 113.43 60.79 115.66 C60.77 118.77 60.74 121.88 60.71 124.99 C60.7 125.92 60.7 126.85 60.69 127.81 C60.62 134.17 60.62 134.17 59.5 135.28 C55.1 135.5 50.7 135.47 46.29 135.47 C44.08 135.47 41.86 135.49 39.65 135.51 C38.25 135.51 36.84 135.51 35.44 135.51 C34.16 135.52 32.88 135.52 31.56 135.53 C28.5 135.28 28.5 135.28 26.5 133.28 C26.29 130.23 26.2 127.26 26.2 124.2 C26.19 123.26 26.18 122.32 26.17 121.35 C26.15 118.22 26.14 115.1 26.12 111.97 C26.11 109.81 26.09 107.64 26.07 105.48 C26.03 99.77 25.99 94.06 25.96 88.35 C25.91 79.22 25.84 70.09 25.77 60.95 C25.75 57.75 25.73 54.56 25.72 51.36 C25.7 49.41 25.69 47.45 25.68 45.5 C25.67 44.6 25.67 43.71 25.67 42.79 C25.66 41.97 25.65 41.15 25.65 40.31 C25.64 39.6 25.64 38.89 25.63 38.16 C25.56 36.05 25.56 36.05 24.5 33.28 C23.61 33.29 22.72 33.3 21.8 33.31 C18.48 33.35 15.16 33.37 11.85 33.39 C10.41 33.4 8.98 33.42 7.55 33.43 C5.48 33.46 3.42 33.47 1.36 33.48 C0.12 33.49 -1.12 33.5 -2.4 33.51 C-5.5 33.28 -5.5 33.28 -8.5 31.28 C-8.87 28.42 -8.87 28.42 -8.86 24.81 C-8.86 23.52 -8.86 22.23 -8.86 20.9 C-8.85 20.22 -8.84 19.55 -8.83 18.85 C-8.81 16.79 -8.81 14.73 -8.82 12.67 C-8.75 0.07 -8.75 0.07 0 0 Z " fill="#FDFDFD" transform="translate(722.4981842041016,519.7178344726563)"/>
<path d="M0 0 C1.17 -0.01 2.34 -0.02 3.55 -0.03 C4.83 -0.02 6.12 -0.01 7.44 -0.01 C8.81 -0.01 10.18 -0.02 11.54 -0.02 C15.26 -0.04 18.97 -0.03 22.68 -0.02 C26.56 -0.01 30.45 -0.02 34.33 -0.03 C40.84 -0.03 47.36 -0.02 53.88 -0.01 C61.42 0.01 68.96 0 76.5 -0.02 C82.97 -0.03 89.44 -0.03 95.91 -0.02 C99.78 -0.02 103.65 -0.02 107.51 -0.03 C111.15 -0.04 114.78 -0.03 118.41 -0.01 C120.39 -0.01 122.36 -0.02 124.34 -0.03 C125.51 -0.02 126.68 -0.01 127.88 0 C129.41 0 129.41 0 130.97 0 C132.16 0.19 132.16 0.19 133.38 0.38 C135.43 3.46 135.63 4.09 135.62 7.56 C135.62 8.4 135.62 9.24 135.63 10.1 C135.62 11.45 135.62 11.45 135.61 12.83 C135.61 13.75 135.61 14.68 135.6 15.63 C135.6 17.59 135.59 19.54 135.58 21.5 C135.56 24.5 135.56 27.51 135.56 30.51 C135.56 32.41 135.55 34.3 135.54 36.2 C135.54 37.11 135.54 38.01 135.54 38.94 C135.49 45.26 135.49 45.26 134.38 46.38 C132.56 46.48 130.74 46.51 128.92 46.51 C127.73 46.52 126.55 46.52 125.33 46.53 C124.01 46.53 122.7 46.53 121.35 46.53 C119.96 46.53 118.58 46.53 117.19 46.54 C113.42 46.55 109.64 46.55 105.87 46.55 C102.72 46.55 99.58 46.55 96.43 46.56 C89.01 46.56 81.59 46.57 74.17 46.57 C66.5 46.57 58.84 46.58 51.17 46.59 C44.6 46.61 38.03 46.61 31.46 46.61 C27.53 46.61 23.6 46.61 19.67 46.62 C15.97 46.63 12.28 46.63 8.59 46.63 C6.58 46.62 4.57 46.63 2.56 46.64 C1.37 46.64 0.19 46.63 -1.04 46.63 C-2.07 46.63 -3.11 46.63 -4.18 46.63 C-6.62 46.38 -6.62 46.38 -8.62 44.38 C-8.84 41.33 -8.93 38.37 -8.93 35.32 C-8.93 34.42 -8.93 33.52 -8.94 32.59 C-8.94 30.69 -8.94 28.78 -8.94 26.88 C-8.94 23.96 -8.96 21.04 -8.99 18.12 C-8.99 16.27 -8.99 14.42 -8.99 12.57 C-9 11.7 -9.01 10.82 -9.02 9.92 C-9.01 9.11 -9 8.29 -9 7.45 C-9 6.74 -9 6.02 -9 5.28 C-8.02 0.3 -4.48 0 0 0 Z " fill="#FDFDFD" transform="translate(316.62428283691406,292.6190490722656)"/>
<path d="M0 0 C0.74 -0 1.48 -0.01 2.24 -0.02 C4.68 -0.03 7.12 -0.04 9.56 -0.04 C11.26 -0.05 12.96 -0.05 14.66 -0.06 C18.23 -0.07 21.8 -0.08 25.36 -0.08 C29.92 -0.08 34.48 -0.11 39.04 -0.14 C42.55 -0.16 46.07 -0.16 49.58 -0.16 C51.26 -0.17 52.94 -0.17 54.62 -0.19 C56.98 -0.2 59.33 -0.2 61.69 -0.2 C62.72 -0.21 62.72 -0.21 63.77 -0.22 C68.73 -0.18 73.26 0.74 77.6 3.16 C82.71 9.72 82.32 17.44 82.29 25.42 C82.29 27.66 82.35 29.89 82.42 32.12 C82.56 44.03 82.56 44.03 78.25 49.13 C74.35 52.85 71.12 53.29 65.85 53.27 C64.08 53.27 64.08 53.27 62.27 53.27 C60.99 53.27 59.72 53.26 58.41 53.26 C57.1 53.26 55.79 53.26 54.45 53.25 C50.98 53.25 47.52 53.24 44.05 53.23 C40.51 53.22 36.97 53.21 33.43 53.21 C26.49 53.2 19.55 53.18 12.6 53.16 C12.93 69.33 13.26 85.5 13.6 102.16 C19.78 102.22 19.78 102.22 26.08 102.27 C29.37 102.31 32.67 102.35 35.96 102.4 C39.43 102.44 42.9 102.48 46.37 102.51 C50.36 102.54 54.34 102.59 58.33 102.65 C59.57 102.66 60.81 102.66 62.08 102.67 C73.41 102.86 73.41 102.86 77.6 106.16 C81.25 111.15 82.11 114.59 82.14 120.85 C82.14 121.92 82.14 121.92 82.15 123 C82.15 124.49 82.14 125.97 82.13 127.46 C82.1 129.72 82.13 131.98 82.15 134.25 C82.15 135.7 82.14 137.15 82.14 138.6 C82.13 139.91 82.13 141.22 82.12 142.56 C81.4 147.61 79.51 150.7 75.46 153.8 C71.81 155.54 68.54 155.6 64.58 155.58 C63.39 155.59 63.39 155.59 62.17 155.61 C59.55 155.63 56.93 155.63 54.31 155.63 C52.48 155.64 50.65 155.64 48.82 155.65 C44.99 155.67 41.15 155.67 37.32 155.66 C32.42 155.66 27.53 155.69 22.63 155.73 C18.85 155.75 15.07 155.76 11.29 155.75 C9.49 155.75 7.68 155.76 5.88 155.78 C-5.6 155.88 -14.66 155.52 -23.6 147.44 C-24.89 146.07 -24.89 146.07 -26.21 144.66 C-27.52 143.28 -27.52 143.28 -28.85 141.88 C-30.11 140.53 -30.11 140.53 -31.4 139.16 C-33.06 137.49 -34.73 135.82 -36.4 134.16 C-41.49 128.5 -41.69 121.61 -41.69 114.37 C-41.69 113.52 -41.7 112.67 -41.71 111.79 C-41.73 108.99 -41.73 106.19 -41.73 103.4 C-41.74 101.44 -41.74 99.48 -41.75 97.52 C-41.76 93.42 -41.77 89.31 -41.77 85.21 C-41.77 79.98 -41.79 74.75 -41.83 69.51 C-41.85 65.47 -41.85 61.42 -41.85 57.38 C-41.86 55.45 -41.86 53.52 -41.88 51.59 C-42.04 29.82 -42.04 29.82 -35.42 20.32 C-34.73 19.65 -34.05 18.98 -33.35 18.29 C-32.2 17.15 -32.2 17.15 -31.04 15.99 C-30.25 15.24 -29.46 14.49 -28.65 13.72 C-27.49 12.56 -27.49 12.56 -26.3 11.37 C-18.33 3.6 -11.17 0.02 0 0 Z M-20.58 20.97 C-21.31 21.67 -22.03 22.37 -22.78 23.09 C-23.47 23.78 -24.16 24.47 -24.88 25.18 C-25.5 25.8 -26.13 26.42 -26.78 27.06 C-30.63 32.07 -30.69 37.67 -30.67 43.75 C-30.68 44.59 -30.68 45.43 -30.69 46.3 C-30.7 49.07 -30.7 51.83 -30.7 54.6 C-30.7 56.53 -30.7 58.46 -30.71 60.39 C-30.72 64.43 -30.72 68.47 -30.71 72.51 C-30.71 77.68 -30.72 82.86 -30.75 88.03 C-30.76 92.01 -30.76 96 -30.76 99.98 C-30.76 101.89 -30.76 103.8 -30.77 105.7 C-30.79 108.37 -30.78 111.04 -30.77 113.7 C-30.78 114.49 -30.78 115.27 -30.79 116.08 C-30.75 120.68 -30.11 123.46 -27.4 127.16 C-26.96 127.89 -26.53 128.61 -26.08 129.36 C-21.52 136.4 -15.72 143.49 -7.29 145.72 C5.01 147.9 17.9 146.92 30.32 146.4 C35.2 146.21 40.09 146.13 44.98 146.04 C54.53 145.85 64.06 145.54 73.6 145.16 C73.65 140.93 73.69 136.69 73.71 132.45 C73.72 131.01 73.74 129.57 73.76 128.13 C73.78 126.06 73.79 123.99 73.8 121.92 C73.81 120.67 73.82 119.43 73.83 118.14 C73.92 115.04 73.92 115.04 71.6 113.16 C68.83 112.84 68.83 112.84 65.55 112.86 C64.28 112.84 63.01 112.82 61.7 112.81 C60.3 112.8 58.91 112.79 57.51 112.78 C56.09 112.77 54.66 112.75 53.24 112.73 C49.48 112.68 45.73 112.65 41.97 112.62 C35.97 112.57 29.96 112.5 23.95 112.43 C21.85 112.41 19.75 112.39 17.65 112.38 C15.74 112.36 15.74 112.36 13.79 112.33 C12.66 112.33 11.54 112.32 10.38 112.31 C7.6 112.16 7.6 112.16 4.6 111.16 C4.93 89.38 5.26 67.6 5.6 45.16 C8.38 43.77 10.68 44.01 13.78 43.97 C15.08 43.95 16.38 43.94 17.72 43.92 C18.41 43.91 19.11 43.91 19.82 43.9 C22 43.88 24.17 43.85 26.34 43.82 C31.73 43.75 37.13 43.69 42.52 43.64 C47.08 43.58 51.64 43.53 56.2 43.47 C58.34 43.44 60.49 43.42 62.63 43.4 C64.57 43.38 64.57 43.38 66.56 43.35 C68.28 43.33 68.28 43.33 70.03 43.31 C72.54 43.45 72.54 43.45 73.6 42.16 C73.82 37.9 73.79 33.64 73.79 29.38 C73.79 27.24 73.81 25.09 73.83 22.95 C73.83 21.6 73.83 20.24 73.83 18.88 C73.84 17.64 73.84 16.4 73.85 15.13 C73.92 12.04 73.92 12.04 71.6 10.16 C69.1 9.96 66.71 9.88 64.2 9.89 C63.44 9.88 62.68 9.88 61.89 9.87 C59.36 9.86 56.83 9.86 54.3 9.86 C52.55 9.86 50.79 9.85 49.03 9.85 C45.35 9.84 41.66 9.84 37.98 9.85 C33.25 9.85 28.53 9.83 23.81 9.81 C20.18 9.8 16.55 9.8 12.92 9.8 C11.18 9.8 9.44 9.79 7.7 9.78 C5.27 9.77 2.83 9.78 0.39 9.79 C-0.68 9.78 -0.68 9.78 -1.78 9.77 C-10.41 9.86 -14.84 15.24 -20.58 20.97 Z " fill="#040807" transform="translate(335.3955078125,509.8388671875)"/>
<path d="M0 0 C0.82 -0.01 1.65 -0.01 2.5 -0.02 C5.2 -0.03 7.91 -0.03 10.61 -0.03 C12.51 -0.03 14.4 -0.03 16.3 -0.04 C20.26 -0.05 24.23 -0.05 28.19 -0.04 C33.25 -0.04 38.31 -0.05 43.37 -0.08 C47.28 -0.09 51.19 -0.09 55.11 -0.09 C56.97 -0.09 58.83 -0.09 60.7 -0.1 C84.7 -0.22 84.7 -0.22 93.33 8.13 C94.39 9.19 94.39 9.19 95.47 10.27 C96.84 11.52 96.84 11.52 98.24 12.79 C99.21 13.7 100.18 14.61 101.16 15.52 C102.05 16.35 102.94 17.18 103.86 18.04 C110.6 25.58 112.22 34.44 112.1 44.22 C112.1 45.32 112.1 46.42 112.11 47.55 C112.1 49.85 112.09 52.15 112.07 54.45 C112.03 57.96 112.05 61.47 112.07 64.98 C112.06 67.23 112.05 69.48 112.04 71.72 C112.04 72.76 112.05 73.8 112.05 74.87 C111.92 82.96 110.2 88.72 104.42 94.51 C102.78 96.02 101.12 97.49 99.45 98.96 C97.64 100.59 97.64 100.59 95.47 103.27 C95.7 107.74 97.85 110.91 100.18 114.64 C100.55 115.24 100.92 115.84 101.3 116.45 C102.47 118.36 103.66 120.25 104.84 122.15 C106.02 124.04 107.2 125.93 108.37 127.82 C109.44 129.55 110.51 131.27 111.58 132.99 C116.39 141.37 116.39 141.37 116.59 146.34 C114.97 150.58 112.3 152.9 108.47 155.27 C105.48 156.08 102.66 156.1 99.57 156.04 C98.74 156.04 97.9 156.04 97.04 156.05 C95.29 156.05 93.53 156.03 91.77 156 C89.11 155.96 86.45 155.98 83.78 156.01 C66.54 156.01 66.54 156.01 60.47 150.27 C58.65 147.98 57.41 146.18 56.09 143.65 C55.55 142.7 55.55 142.7 55 141.73 C53.32 138.76 51.72 135.76 50.15 132.74 C49.23 130.98 48.3 129.23 47.36 127.48 C46.45 125.79 45.57 124.08 44.71 122.36 C42.38 117.88 42.38 117.88 38.12 115.52 C35.87 115.26 33.74 115.17 31.47 115.27 C31.5 116.21 31.53 117.14 31.56 118.1 C31.67 121.59 31.74 125.07 31.8 128.56 C31.83 130.07 31.87 131.57 31.92 133.07 C32.4 147.19 32.4 147.19 28.57 151.74 C24.58 155.42 21.16 155.46 15.9 155.51 C14.77 155.53 14.77 155.53 13.61 155.54 C12.01 155.55 10.41 155.56 8.8 155.57 C6.37 155.59 3.95 155.63 1.52 155.68 C-13.55 155.83 -13.55 155.83 -19.53 151.27 C-21.39 147.64 -21.78 144.64 -21.79 140.59 C-21.8 139.45 -21.81 138.32 -21.81 137.15 C-21.81 135.92 -21.81 134.68 -21.81 133.41 C-21.81 132.1 -21.82 130.79 -21.82 129.45 C-21.83 125.87 -21.83 122.29 -21.83 118.7 C-21.83 115.71 -21.84 112.72 -21.84 109.73 C-21.85 102.67 -21.85 95.61 -21.85 88.55 C-21.84 81.27 -21.85 73.99 -21.87 66.72 C-21.89 60.46 -21.9 54.21 -21.89 47.96 C-21.89 44.22 -21.89 40.49 -21.91 36.76 C-21.92 32.59 -21.91 28.43 -21.9 24.27 C-21.91 22.42 -21.91 22.42 -21.93 20.53 C-21.88 13.7 -21.33 9.2 -17.28 3.52 C-12.23 -0.08 -5.95 -0.02 0 0 Z M-8.53 10.27 C-10.76 13.61 -10.78 14.66 -10.78 18.56 C-10.79 19.65 -10.8 20.75 -10.8 21.88 C-10.8 23.08 -10.79 24.28 -10.79 25.52 C-10.79 26.78 -10.8 28.05 -10.8 29.35 C-10.81 32.82 -10.81 36.29 -10.8 39.76 C-10.79 43.39 -10.8 47.02 -10.8 50.65 C-10.81 56.75 -10.8 62.84 -10.79 68.93 C-10.78 75.98 -10.78 83.04 -10.79 90.09 C-10.8 96.14 -10.81 102.18 -10.8 108.23 C-10.8 111.85 -10.8 115.46 -10.8 119.08 C-10.81 123.11 -10.8 127.13 -10.79 131.16 C-10.79 132.37 -10.8 133.57 -10.8 134.81 C-10.8 135.9 -10.79 136.99 -10.78 138.12 C-10.78 139.07 -10.78 140.02 -10.78 141.01 C-10.75 143.47 -10.75 143.47 -8.53 145.27 C-6.09 145.45 -3.77 145.51 -1.34 145.47 C0.61 145.46 0.61 145.46 2.59 145.45 C4.24 145.44 5.89 145.42 7.59 145.4 C12.83 145.36 18.07 145.32 23.47 145.27 C23.8 132.4 24.13 119.53 24.47 106.27 C32.06 105.94 39.65 105.61 47.47 105.27 C48.13 106.92 48.79 108.57 49.47 110.27 C51.48 114.02 53.62 117.7 55.75 121.38 C56.77 123.13 57.78 124.9 58.8 126.66 C64.31 137.1 64.31 137.1 72.47 145.27 C75.23 145.45 77.88 145.51 80.64 145.47 C81.43 145.47 82.23 145.46 83.05 145.46 C85.58 145.45 88.12 145.43 90.66 145.4 C92.38 145.39 94.1 145.38 95.82 145.37 C100.04 145.35 104.25 145.32 108.47 145.27 C104.77 137.64 100.83 130.26 96.41 123.02 C95.9 122.19 95.4 121.36 94.88 120.5 C94.38 119.68 93.89 118.86 93.37 118.01 C92.89 117.21 92.41 116.42 91.91 115.6 C90.96 114.06 89.97 112.53 88.95 111.03 C88.48 110.33 88.02 109.63 87.54 108.92 C87.11 108.31 86.69 107.7 86.26 107.07 C85.47 105.27 85.47 105.27 85.63 103.27 C86.65 100.85 87.88 99.55 89.78 97.74 C90.44 97.1 91.11 96.45 91.79 95.79 C92.49 95.12 93.19 94.46 93.91 93.77 C95.29 92.46 96.66 91.13 98.03 89.81 C98.64 89.22 99.25 88.64 99.88 88.04 C102.89 84.69 103.72 81.87 103.74 77.4 C103.75 76.44 103.76 75.47 103.77 74.48 C103.77 73.44 103.77 72.41 103.77 71.34 C103.78 69.74 103.78 69.74 103.78 68.1 C103.79 65.84 103.79 63.57 103.79 61.31 C103.78 57.85 103.81 54.4 103.83 50.94 C103.83 48.74 103.83 46.54 103.83 44.34 C103.84 43.31 103.85 42.27 103.86 41.21 C103.81 33.39 102.11 29.66 96.56 24.1 C95.82 23.36 95.08 22.61 94.31 21.84 C93.54 21.08 92.77 20.31 91.97 19.52 C91.2 18.74 90.43 17.96 89.63 17.16 C88.51 16.05 88.51 16.05 87.38 14.92 C86.7 14.24 86.02 13.56 85.32 12.87 C81.42 9.51 76.86 10.12 71.99 10.11 C71.13 10.11 70.26 10.1 69.37 10.1 C66.51 10.08 63.64 10.08 60.78 10.07 C58.79 10.07 56.81 10.06 54.82 10.05 C50.66 10.04 46.49 10.04 42.33 10.03 C36.98 10.03 31.64 10 26.29 9.98 C22.19 9.96 18.09 9.95 13.99 9.95 C12.01 9.95 10.04 9.94 8.07 9.93 C5.32 9.91 2.57 9.91 -0.18 9.92 C-1 9.91 -1.82 9.9 -2.67 9.89 C-5.16 9.87 -5.16 9.87 -8.53 10.27 Z " fill="#040807" transform="translate(584.530517578125,509.725341796875)"/>
<path d="M0 0 C0.83 -0.01 1.66 -0.01 2.51 -0.02 C3.87 -0.02 3.87 -0.02 5.25 -0.02 C6.68 -0.03 6.68 -0.03 8.15 -0.04 C11.31 -0.05 14.47 -0.06 17.64 -0.06 C19.84 -0.07 22.04 -0.07 24.24 -0.08 C28.85 -0.09 33.46 -0.1 38.07 -0.1 C43.98 -0.11 49.88 -0.13 55.79 -0.16 C60.33 -0.18 64.88 -0.18 69.42 -0.18 C71.6 -0.19 73.78 -0.19 75.95 -0.21 C79 -0.22 82.05 -0.22 85.1 -0.22 C86.44 -0.23 86.44 -0.23 87.82 -0.24 C92.9 -0.21 96.4 0.32 100.8 3.14 C106.83 10.26 106.5 19.05 106.3 27.89 C106.3 29.82 106.3 29.82 106.31 31.79 C106.24 38.12 106.11 42.59 102.8 48.14 C98.39 52.12 96.01 53.27 90.14 53.24 C89.02 53.23 87.89 53.23 86.74 53.23 C85.56 53.22 84.39 53.21 83.18 53.2 C81.99 53.2 80.81 53.19 79.59 53.19 C76.66 53.18 73.73 53.16 70.8 53.14 C70.81 54.28 70.82 55.41 70.83 56.59 C70.91 67.31 70.97 78.04 71.01 88.76 C71.03 94.28 71.06 99.79 71.1 105.31 C71.15 110.63 71.17 115.95 71.18 121.28 C71.19 123.3 71.2 125.33 71.22 127.36 C71.25 130.21 71.26 133.05 71.26 135.9 C71.27 136.74 71.28 137.57 71.3 138.43 C71.26 144.14 70.07 147.43 66.8 152.14 C62.83 155.5 58.91 155.59 53.9 155.57 C53.15 155.58 52.4 155.58 51.62 155.59 C50.03 155.6 48.44 155.6 46.85 155.59 C44.44 155.58 42.03 155.61 39.61 155.64 C38.06 155.64 36.51 155.64 34.96 155.64 C34.25 155.65 33.54 155.66 32.8 155.67 C27.57 155.6 23.69 154.61 19.8 151.14 C17.08 145.3 16.36 140.45 16.37 134.06 C16.35 132.76 16.35 132.76 16.34 131.43 C16.31 128.58 16.3 125.74 16.29 122.89 C16.27 120.91 16.25 118.92 16.23 116.94 C16.19 111.74 16.16 106.54 16.13 101.33 C16.1 96.02 16.06 90.7 16.01 85.39 C15.92 74.97 15.86 64.56 15.8 54.14 C15.2 54.12 14.59 54.1 13.97 54.09 C11.21 54 8.45 53.89 5.69 53.78 C4.74 53.76 3.79 53.73 2.81 53.7 C-3.86 53.43 -9.99 52.73 -15.2 48.14 C-17.64 44.5 -17.52 40.76 -17.54 36.52 C-17.54 35.79 -17.55 35.05 -17.56 34.3 C-17.57 32.75 -17.57 31.19 -17.57 29.64 C-17.57 27.28 -17.61 24.92 -17.65 22.56 C-17.65 21.05 -17.66 19.53 -17.66 18.02 C-17.67 17.32 -17.69 16.62 -17.7 15.9 C-17.66 10.86 -16.35 8.03 -13.2 4.14 C-8.95 1.06 -5.19 0.02 0 0 Z M-6.2 12.14 C-6.6 16.28 -6.53 20.42 -6.51 24.57 C-6.51 26.63 -6.54 28.69 -6.56 30.75 C-6.56 32.05 -6.56 33.34 -6.56 34.67 C-6.57 35.86 -6.57 37.06 -6.57 38.28 C-6.45 39.23 -6.33 40.17 -6.2 41.14 C-2.52 43.59 -0.73 43.37 3.66 43.34 C4.65 43.33 4.65 43.33 5.66 43.33 C7.77 43.32 9.88 43.29 11.99 43.27 C13.42 43.26 14.85 43.25 16.28 43.24 C19.79 43.22 23.3 43.18 26.8 43.14 C27.7 45.84 27.93 47.4 27.95 50.17 C27.95 50.99 27.96 51.81 27.97 52.65 C27.97 53.54 27.97 54.43 27.97 55.35 C27.98 56.3 27.99 57.24 27.99 58.21 C28.01 60.26 28.02 62.31 28.03 64.36 C28.05 67.6 28.07 70.84 28.1 74.08 C28.17 83.29 28.23 92.5 28.28 101.71 C28.31 107.34 28.35 112.97 28.4 118.61 C28.41 120.76 28.43 122.91 28.43 125.06 C28.45 128.06 28.47 131.06 28.5 134.06 C28.5 134.95 28.5 135.85 28.5 136.77 C28.33 141.44 28.33 141.44 30.8 145.14 C33.99 145.44 33.99 145.44 37.74 145.37 C38.77 145.37 38.77 145.37 39.81 145.37 C41.25 145.37 42.7 145.36 44.14 145.35 C46.36 145.33 48.57 145.33 50.79 145.33 C57.29 145.96 57.29 145.96 62.8 144.14 C62.93 141.04 62.99 137.95 63.01 134.85 C63.02 133.87 63.03 132.9 63.04 131.89 C63.07 128.65 63.09 125.41 63.12 122.17 C63.14 119.93 63.16 117.69 63.18 115.45 C63.24 109.54 63.28 103.63 63.33 97.72 C63.38 91.69 63.44 85.66 63.49 79.64 C63.6 67.81 63.7 55.97 63.8 44.14 C65.29 44.1 65.29 44.1 66.81 44.06 C70.49 43.97 74.17 43.87 77.85 43.77 C79.44 43.72 81.03 43.68 82.63 43.64 C84.91 43.59 87.2 43.52 89.48 43.46 C90.56 43.43 90.56 43.43 91.66 43.41 C95.02 43.59 95.02 43.59 97.8 42.14 C98.04 38.04 98.03 33.94 98.04 29.84 C98.05 27.78 98.08 25.72 98.11 23.66 C98.12 22.37 98.12 21.08 98.13 19.74 C98.14 18.55 98.15 17.36 98.16 16.13 C98.06 13.19 98.06 13.19 96.54 11.48 C94.41 9.84 93.36 9.77 90.7 9.77 C89.86 9.76 89.03 9.75 88.17 9.74 C87.26 9.75 86.34 9.76 85.4 9.77 C84.44 9.76 83.48 9.76 82.49 9.76 C79.3 9.75 76.11 9.76 72.92 9.78 C70.71 9.78 68.5 9.78 66.29 9.78 C61.66 9.78 57.02 9.79 52.39 9.8 C46.44 9.83 40.48 9.83 34.53 9.82 C29.97 9.82 25.4 9.82 20.84 9.83 C18.64 9.84 16.45 9.84 14.26 9.84 C11.19 9.84 8.13 9.85 5.07 9.87 C4.15 9.86 3.24 9.86 2.3 9.86 C-2.43 9.66 -2.43 9.66 -6.2 12.14 Z " fill="#040807" transform="translate(720.1990661621094,509.85955810546875)"/>
<path d="M0 0 C422.4 0 844.8 0 1280 0 C1280 0.99 1280 1.98 1280 3 C857.6 3 435.2 3 0 3 C0 2.01 0 1.02 0 0 Z " fill="#040807" transform="translate(0,1008)"/>
<path d="M0 0 C4.08 3.17 5.72 5.46 6.62 10.5 C6.56 14.7 5.04 16.51 2.2 19.52 C1.38 20.4 0.56 21.28 -0.29 22.18 C-1.18 23.11 -2.08 24.04 -3 25 C-3.9 25.94 -4.81 26.88 -5.74 27.86 C-12.14 34.48 -18.65 41.01 -25.14 47.54 C-27.52 49.94 -29.89 52.35 -32.25 54.76 C-35.13 57.7 -38.02 60.62 -40.92 63.53 C-42.02 64.63 -43.11 65.74 -44.2 66.86 C-45.71 68.41 -47.24 69.95 -48.78 71.48 C-49.65 72.35 -50.51 73.23 -51.4 74.13 C-54.55 76.4 -56.2 76.5 -60 76 C-62.25 74.55 -62.25 74.55 -64.44 72.42 C-65.3 71.59 -66.16 70.77 -67.04 69.92 C-67.75 69.23 -67.75 69.23 -68.47 68.52 C-70.13 66.87 -71.81 65.25 -73.49 63.64 C-76.7 60.54 -79.87 57.4 -83.03 54.26 C-84.35 52.95 -85.68 51.65 -87.01 50.35 C-88.95 48.45 -90.88 46.53 -92.81 44.61 C-93.41 44.04 -94 43.46 -94.61 42.87 C-97.97 39.49 -99.97 36.81 -101 32 C-100.07 27.9 -97.86 24.76 -94.75 22 C-91 20.64 -87.87 20.05 -84 21 C-80.87 22.85 -78.53 25.42 -76 28 C-74.72 29.25 -73.44 30.49 -72.16 31.73 C-70.77 33.09 -69.39 34.45 -68 35.81 C-67.32 36.48 -66.63 37.15 -65.93 37.84 C-65.29 38.48 -64.66 39.11 -64 39.77 C-63.42 40.34 -62.85 40.92 -62.25 41.51 C-61 43 -61 43 -61 45 C-57.77 45.37 -56.4 45.29 -53.74 43.34 C-52.98 42.56 -52.21 41.78 -51.43 40.98 C-50.55 40.1 -49.68 39.22 -48.78 38.32 C-47.84 37.35 -46.9 36.38 -45.96 35.41 C-44.98 34.42 -44.01 33.44 -43.03 32.46 C-40.47 29.87 -37.92 27.27 -35.38 24.66 C-31.78 20.99 -28.17 17.33 -24.56 13.68 C-22.64 11.73 -20.72 9.78 -18.81 7.82 C-17.94 6.94 -17.08 6.06 -16.19 5.15 C-15.42 4.37 -14.66 3.59 -13.88 2.79 C-9.92 -0.98 -5.21 -0.75 0 0 Z " fill="#F95809" transform="translate(963,556)"/>
<path d="M0 0 C0.85 -0.01 1.71 -0.02 2.59 -0.03 C3.97 -0.04 3.97 -0.04 5.39 -0.04 C6.34 -0.05 7.28 -0.05 8.26 -0.06 C10.26 -0.07 12.27 -0.08 14.27 -0.08 C17.34 -0.09 20.42 -0.12 23.49 -0.15 C25.44 -0.16 27.38 -0.16 29.33 -0.17 C30.25 -0.18 31.17 -0.19 32.13 -0.2 C33.41 -0.2 33.41 -0.2 34.71 -0.2 C35.47 -0.2 36.22 -0.2 37 -0.21 C37.92 -0.02 37.92 -0.02 38.86 0.16 C41.31 3.84 41.09 5.63 41.05 10.02 C41.05 10.68 41.05 11.34 41.04 12.02 C41.03 14.13 41.01 16.24 40.98 18.35 C40.97 19.78 40.96 21.21 40.96 22.64 C40.93 26.15 40.9 29.66 40.86 33.16 C34.32 33.19 27.79 33.2 21.26 33.22 C19.03 33.22 16.81 33.23 14.59 33.24 C11.4 33.25 8.21 33.25 5.02 33.26 C3.52 33.27 3.52 33.27 1.98 33.27 C1.06 33.27 0.14 33.27 -0.81 33.27 C-1.62 33.28 -2.44 33.28 -3.28 33.28 C-5.14 33.16 -5.14 33.16 -6.14 32.16 C-6.23 29.87 -6.25 27.58 -6.24 25.28 C-6.24 24.6 -6.24 23.91 -6.24 23.2 C-6.23 21 -6.22 18.8 -6.21 16.6 C-6.2 15.11 -6.2 13.62 -6.19 12.13 C-6.18 8.47 -6.16 4.82 -6.14 1.16 C-3.85 0.02 -2.54 0.02 0 0 Z " fill="#040807" transform="translate(613.142578125,550.8388671875)"/>
<path d="M0 0 C1.07 -0 2.14 -0 3.25 -0 C4.37 -0 5.49 0 6.65 0.01 C7.78 0 8.91 0 10.07 -0 C11.14 -0 12.21 -0 13.31 0 C14.79 0 14.79 0 16.3 0 C18.59 0.13 18.59 0.13 19.59 1.13 C19.66 3.32 19.67 5.51 19.65 7.7 C19.64 8.89 19.63 10.09 19.62 11.32 C19.61 12.25 19.6 13.18 19.59 14.13 C15.28 14.16 10.96 14.18 6.65 14.2 C5.42 14.2 4.19 14.21 2.92 14.22 C1.75 14.22 0.58 14.23 -0.62 14.23 C-2.25 14.24 -2.25 14.24 -3.91 14.25 C-6.41 14.13 -6.41 14.13 -7.41 13.13 C-7.48 11.11 -7.49 9.09 -7.47 7.07 C-7.46 5.97 -7.45 4.86 -7.45 3.72 C-7.43 2.87 -7.42 2.01 -7.41 1.13 C-4.81 -0.16 -2.9 0 0 0 Z " fill="#FCFCFC" transform="translate(622.41015625,560.8671875)"/>
</svg>
